Coordinates
version=1
nRows=60
nColumns=12
inDegrees=yes

Units are S.I. units (second, meters, Newtons, ...)
Angles are in degrees

endheader
time	SC_y	SC_z	SC_x	AC_y	AC_z	AC_x	GH_y	GH_z	GH_yy	EL_x	PS_y
       0.0              -24.83          17.03          54.64          44.02         -7.539          13.08         -93.63          18.66          14.29          36.49          133.8
   0.02758              -24.83          17.03          54.64          44.02         -7.537          13.08         -93.61          18.67          14.29           36.5          133.8
   0.05516              -24.83          17.03          54.63          44.02         -7.536          13.07         -93.58          18.68          14.29          36.51          133.8
   0.08274              -24.84          17.03          54.62          44.02         -7.534          13.07         -93.55          18.69          14.29          36.53          133.7
    0.1103              -24.84          17.03          54.61          44.03         -7.532          13.07         -93.53           18.7          14.28          36.54          133.7
    0.1379              -24.84          17.03           54.6          44.03          -7.53          13.06          -93.5           18.7          14.28          36.55          133.7
    0.1655              -24.84          17.03          54.59          44.03         -7.528          13.06         -93.46          18.72          14.28          36.57          133.7
    0.1931              -24.84          17.03          54.58          44.04         -7.526          13.05         -93.43          18.73          14.28          36.58          133.7
    0.2207              -24.84          17.04          54.57          44.04         -7.524          13.05         -93.39          18.74          14.27           36.6          133.7
    0.2482              -24.84          17.04          54.56          44.05         -7.521          13.04         -93.35          18.75          14.27          36.62          133.7
    0.2758              -24.84          17.04          54.55          44.05         -7.519          13.03         -93.31          18.76          14.27          36.64          133.7
    0.3034              -24.84          17.04          54.53          44.06         -7.516          13.03         -93.26          18.78          14.26          36.66          133.7
     0.331              -24.84          17.04          54.52          44.06         -7.513          13.02         -93.21          18.79          14.26          36.69          133.7
    0.3586              -24.84          17.04           54.5          44.07         -7.509          13.01         -93.16          18.81          14.25          36.71          133.7
    0.3861              -24.85          17.04          54.48          44.07         -7.506           13.0          -93.1          18.83          14.25          36.74          133.7
    0.4137              -24.85          17.04          54.46          44.08         -7.502           13.0         -93.03          18.85          14.24          36.77          133.7
    0.4413              -24.85          17.04          54.44          44.09         -7.497          12.99         -92.96          18.87          14.24           36.8          133.7
    0.4689              -24.85          17.04          54.42           44.1         -7.493          12.97         -92.89          18.89          14.23          36.83          133.6
    0.4965              -24.85          17.04          54.39          44.11         -7.488          12.96         -92.81          18.92          14.22          36.87          133.6
     0.524              -24.85          17.04          54.37          44.12         -7.482          12.95         -92.72          18.95          14.21          36.91          133.6
    0.5516              -24.86          17.04          54.34          44.13         -7.476          12.93         -92.62          18.98           14.2          36.96          133.6
    0.5792              -24.86          17.05          54.31          44.14         -7.469          12.92         -92.51          19.01           14.2          37.01          133.6
    0.6068              -24.86          17.05          54.27          44.15         -7.462           12.9         -92.39          19.05          14.18          37.07          133.6
    0.6344              -24.86          17.05          54.23          44.16         -7.454          12.88         -92.26          19.09          14.17          37.13          133.5
     0.662              -24.87          17.05          54.18          44.18         -7.445          12.86         -92.11          19.14          14.16           37.2          133.5
    0.6895              -24.87          17.05          54.14           44.2         -7.434          12.84         -91.94          19.19          14.15          37.27          133.5
    0.7171              -24.87          17.05          54.08          44.22         -7.423          12.81         -91.76          19.25          14.13          37.36          133.5
    0.7447              -24.88          17.06          54.02          44.24          -7.41          12.78         -91.55          19.31          14.11          37.45          133.4
    0.7723              -24.88          17.06          53.95          44.27         -7.396          12.75         -91.31          19.39          14.09          37.56          133.4
    0.7999              -24.89          17.06          53.87           44.3         -7.379          12.71         -91.05          19.47          14.07          37.69          133.4
    0.8274               -24.9          17.06          53.77          44.33          -7.36          12.66         -90.74          19.57          14.04          37.83          133.3
     0.855               -24.9          17.07          53.67          44.37         -7.339          12.61         -90.39          19.68          14.01          37.99          133.3
    0.8826              -24.91          17.07          53.55          44.41         -7.314          12.55         -89.99           19.8          13.97          38.18          133.2
    0.9102              -24.92          17.08          53.41          44.46         -7.285          12.49         -89.52          19.95          13.93           38.4          133.1
    0.9378              -24.93          17.08          53.24          44.52         -7.251          12.41         -88.97          20.12          13.88          38.65          133.0
    0.9654              -24.95          17.09          53.05          44.59         -7.211          12.31         -88.32          20.32          13.83          38.95          132.9
    0.9929              -24.97           17.1          52.82          44.67         -7.163           12.2         -87.55          20.56          13.76          39.31          132.8
     1.021              -24.99          17.11          52.54          44.77         -7.106          12.07         -86.63          20.85          13.68          39.73          132.7
     1.048              -25.01          17.12           52.2          44.89         -7.037           11.9         -85.51           21.2          13.58          40.25          132.5
     1.076              -25.04          17.14          51.79          45.04         -6.953          11.71         -84.15          21.63          13.46          40.88          132.3
     1.103              -25.08          17.16          51.29          45.22         -6.849          11.46         -82.47          22.16          13.31          41.66          132.0
     1.131              -25.12          17.18          50.66          45.45          -6.72          11.16         -80.37          22.81          13.13          42.63          131.7
     1.158              -25.18          17.21          49.86          45.73         -6.557          10.77         -77.73          23.64          12.89          43.86          131.3
     1.186              -25.25          17.25          48.85          46.09         -6.349          10.29         -74.37          24.69           12.6          45.41          130.8
     1.214              -25.34           17.3          47.56          46.56         -6.084          9.663         -70.07          26.04          12.22          47.41          130.1
     1.241              -25.46          17.36           45.9          47.15         -5.743          8.862         -64.55          27.76          11.73          49.96          129.3
     1.269              -25.62          17.44          43.78          47.91         -5.307           7.84         -57.51          29.97          11.11          53.23          128.2
     1.296              -25.81          17.53          41.12          48.87          -4.76          6.554         -48.65          32.74          10.33          57.33          126.8
     1.324              -26.04          17.65          37.87          50.03         -4.093          4.987         -37.85          36.12          9.384          62.34          125.2
     1.351              -26.32          17.79          34.11          51.38          -3.32           3.17         -25.33          40.04          8.282          68.14          123.2
     1.379              -26.61          17.94          30.03          52.84         -2.483          1.203         -11.78          44.28          7.089          74.42          121.1
     1.407              -26.91           18.1          25.96          54.31         -1.646        -0.7634          1.775          48.52          5.896           80.7          119.1
     1.434              -27.18          18.24          22.19          55.66        -0.8726          -2.58          14.29          52.44          4.795           86.5          117.1
     1.462              -27.41          18.36          18.94          56.82        -0.2056         -4.147          25.09          55.82          3.844           91.5          115.5
     1.489               -27.6          18.45          16.28          57.78         0.3417         -5.433          33.95          58.59          3.064          95.61          114.1
     1.517              -27.76          18.53          14.16          58.54          0.777         -6.456           41.0           60.8          2.444          98.87          113.0
     1.545              -27.88          18.59           12.5          59.13          1.118         -7.256          46.52          62.53          1.958          101.4          112.2
     1.572              -27.97          18.64          11.21           59.6          1.383          -7.88          50.82          63.87           1.58          103.4          111.5
       1.6              -28.04          18.68           10.2          59.96          1.591         -8.368          54.17          64.92          1.284          105.0          111.0
     1.627               -28.1          18.71          9.405          60.24          1.754         -8.751          56.82          65.75          1.052          106.2          110.6
